<mxfile host="app.diagrams.net" modified="2022-09-04T16:45:06.364Z" agent="5.0 (Macintosh; Intel Mac OS X 10_15_7) AppleWebKit/537.36 (KHTML, like Gecko) Chrome/104.0.0.0 Safari/537.36" etag="LucBTJ3S9WRkd8arfyT9" version="20.2.7" type="github">
  <diagram id="Z1QF7XeJdlzP-M_2XgwV" name="Page-1">
    <mxGraphModel dx="1396" dy="770" grid="1" gridSize="10" guides="1" tooltips="1" connect="1" arrows="1" fold="1" page="1" pageScale="1" pageWidth="1169" pageHeight="827" math="0" shadow="0">
      <root>
        <mxCell id="0" />
        <mxCell id="1" parent="0" />
        <mxCell id="WyDVCww5WpmOBfyeX8nZ-2" value="USERS" style="rounded=0;whiteSpace=wrap;html=1;" vertex="1" parent="1">
          <mxGeometry x="40" y="150" width="160" height="40" as="geometry" />
        </mxCell>
        <mxCell id="WyDVCww5WpmOBfyeX8nZ-3" value="COURSES" style="rounded=0;whiteSpace=wrap;html=1;" vertex="1" parent="1">
          <mxGeometry x="40" y="200" width="160" height="40" as="geometry" />
        </mxCell>
        <mxCell id="WyDVCww5WpmOBfyeX8nZ-4" value="LESSONS" style="rounded=0;whiteSpace=wrap;html=1;" vertex="1" parent="1">
          <mxGeometry x="40" y="250" width="160" height="40" as="geometry" />
        </mxCell>
        <mxCell id="WyDVCww5WpmOBfyeX8nZ-5" value="&lt;font style=&quot;font-size: 18px;&quot;&gt;TABLES&lt;/font&gt;" style="text;html=1;strokeColor=none;fillColor=none;align=center;verticalAlign=middle;whiteSpace=wrap;rounded=0;fontStyle=1" vertex="1" parent="1">
          <mxGeometry x="80" y="70" width="60" height="30" as="geometry" />
        </mxCell>
      </root>
    </mxGraphModel>
  </diagram>
</mxfile>
